<?xml version="1.0" standalone="no"?>
<!DOCTYPE svg PUBLIC "-//W3C//DTD SVG 20010904//EN"
 "http://www.w3.org/TR/2001/REC-SVG-20010904/DTD/svg10.dtd">
<svg version="1.0" xmlns="http://www.w3.org/2000/svg"
 width="420.000000pt" height="420.000000pt" viewBox="0 0 420.000000 420.000000"
 preserveAspectRatio="xMidYMid meet">
<metadata>
Created by potrace 1.11, written by Peter Selinger 2001-2013
</metadata>
<g transform="translate(0.000000,420.000000) scale(0.100000,-0.100000)"
fill="#000000" stroke="none">
<path d="M2310 4184 c-131 -22 -193 -35 -212 -45 -10 -5 -28 -9 -41 -9 -13 0
-46 -7 -73 -15 -27 -9 -65 -20 -84 -26 -19 -6 -44 -14 -55 -18 -47 -18 -124
-41 -139 -41 -9 0 -16 -4 -16 -10 0 -5 -9 -10 -19 -10 -11 0 -22 -4 -25 -9 -3
-5 -22 -12 -41 -15 -19 -4 -35 -11 -35 -16 0 -6 -8 -10 -17 -10 -24 0 -254
-117 -261 -132 -2 -5 -8 -8 -13 -8 -12 0 -93 -52 -97 -62 -2 -5 -10 -8 -18 -8
-8 0 -14 -4 -14 -9 0 -5 -8 -12 -18 -15 -10 -4 -27 -14 -38 -24 -11 -9 -49
-42 -84 -72 -68 -57 -220 -209 -220 -219 0 -3 -12 -19 -26 -36 -36 -42 -134
-190 -134 -203 0 -6 -3 -12 -7 -14 -5 -1 -25 -39 -47 -83 -21 -44 -44 -92 -52
-107 -8 -14 -14 -35 -14 -46 0 -12 -5 -24 -10 -27 -6 -3 -10 -15 -10 -26 0
-10 -4 -19 -10 -19 -5 0 -10 -14 -10 -31 0 -17 -5 -39 -11 -50 -6 -11 -15 -44
-20 -72 -5 -29 -14 -72 -20 -97 -37 -161 -37 -570 0 -740 5 -25 15 -67 20 -94
11 -50 27 -104 42 -141 4 -11 13 -38 20 -60 6 -22 18 -58 25 -80 8 -23 14 -48
14 -58 0 -9 4 -25 9 -35 6 -9 17 -51 25 -92 8 -41 20 -102 26 -136 13 -67 9
-228 -9 -314 -13 -62 -52 -182 -62 -190 -3 -3 -10 -16 -14 -30 -11 -38 -89
-124 -140 -157 -25 -15 -45 -31 -45 -35 0 -12 28 -10 35 2 3 5 22 10 41 10 19
0 34 5 34 10 0 6 7 10 15 10 21 0 95 33 95 42 0 5 5 8 11 8 15 0 79 49 117 90
33 35 56 70 68 103 3 9 10 17 15 17 5 0 9 7 9 15 0 8 4 15 9 15 5 0 11 10 14
22 4 21 15 52 37 113 51 137 62 456 30 795 -19 187 -23 373 -11 460 13 88 37
200 51 235 4 11 22 55 39 99 58 142 164 298 282 415 56 56 159 146 172 150 7
2 19 12 27 21 8 9 20 19 25 21 6 2 42 25 82 52 39 26 76 47 81 47 6 0 12 3 14
8 4 9 110 62 126 62 6 0 12 3 12 8 0 4 21 15 48 25 26 10 55 23 64 28 10 5 26
9 36 9 10 0 22 4 28 9 14 13 172 53 229 58 28 2 59 9 70 14 25 12 399 5 495
-9 36 -5 97 -18 135 -27 39 -9 82 -19 98 -22 15 -3 30 -9 33 -14 3 -5 18 -9
33 -9 15 0 31 -4 37 -8 5 -4 27 -14 49 -21 52 -18 212 -94 250 -121 17 -11 33
-20 36 -20 3 0 19 26 34 58 16 31 32 59 35 62 10 9 60 115 60 127 0 6 3 13 8
15 7 3 26 36 84 148 18 36 36 67 41 68 4 2 7 12 7 23 0 10 5 19 10 19 6 0 10
5 10 11 0 12 31 81 40 89 3 3 14 22 24 42 24 44 19 52 -62 100 -77 45 -195
100 -272 128 -19 6 -44 16 -55 20 -28 11 -70 25 -140 45 -33 10 -71 21 -85 26
-31 10 -107 25 -228 44 -119 19 -481 19 -602 -1z"/>
<path d="M2380 3285 c-9 -11 -14 -85 -18 -256 l-5 -241 29 4 c22 2 30 9 34 28
8 38 51 130 61 130 5 0 9 5 9 10 0 33 172 180 210 180 5 0 10 5 10 10 0 6 8
10 18 10 9 0 30 7 46 15 15 8 39 15 52 15 12 0 26 5 29 10 3 6 19 10 36 10 16
0 29 5 29 10 0 6 -9 10 -19 10 -11 0 -22 4 -25 8 -3 5 -51 16 -108 26 -57 10
-122 22 -145 27 -70 15 -228 11 -243 -6z"/>
<path d="M2140 3258 c-30 -5 -59 -13 -63 -18 -5 -4 -3 -27 3 -51 7 -24 16 -69
21 -99 4 -30 13 -77 19 -105 6 -27 15 -79 20 -114 15 -101 17 -104 57 -98 19
3 40 10 46 16 9 7 11 72 7 243 l-5 233 -25 2 c-14 0 -50 -3 -80 -9z"/>
<path d="M1873 3172 c-75 -25 -77 -30 -53 -93 11 -30 25 -62 30 -71 6 -10 10
-25 10 -33 0 -8 4 -23 10 -33 5 -9 28 -64 51 -122 22 -58 44 -109 49 -114 10
-10 67 10 89 31 14 15 13 24 -14 118 -29 103 -33 118 -50 180 -9 33 -18 71
-21 85 -8 37 -26 70 -38 69 -6 0 -35 -8 -63 -17z"/>
<path d="M1598 3032 c-27 -15 -48 -33 -48 -40 0 -11 41 -74 60 -92 3 -3 30
-43 60 -90 30 -47 63 -94 72 -104 10 -11 18 -23 18 -26 0 -4 10 -19 23 -33 22
-26 23 -26 47 -10 57 39 57 50 0 133 -9 14 -30 50 -45 80 -16 30 -34 62 -41
70 -6 8 -26 43 -45 78 -18 34 -38 62 -43 62 -6 0 -32 -13 -58 -28z"/>
<path d="M1413 2897 c-11 -13 -29 -30 -40 -38 -11 -8 -25 -23 -31 -34 -10 -18
1 -32 102 -130 62 -60 132 -127 155 -148 40 -36 42 -37 66 -21 14 9 25 23 25
30 0 8 5 14 10 14 6 0 10 7 10 15 0 8 -3 15 -7 15 -5 0 -19 16 -32 35 -13 19
-34 47 -47 62 -13 16 -24 31 -24 35 0 4 -11 18 -25 32 -14 14 -25 28 -25 31 0
5 -5 12 -35 48 -6 7 -21 27 -34 45 -27 38 -40 40 -68 9z"/>
<path d="M1227 2716 c-9 -13 -22 -29 -29 -37 -52 -53 -61 -95 -23 -105 14 -3
25 -10 25 -15 0 -5 7 -9 15 -9 8 0 15 -3 15 -7 0 -5 18 -17 40 -27 22 -10 48
-27 59 -37 11 -11 24 -19 28 -19 4 0 39 -21 77 -45 38 -25 74 -45 79 -45 12 0
57 51 57 66 0 6 -36 44 -81 85 -44 41 -111 102 -147 137 -89 84 -96 87 -115
58z"/>
<path d="M2265 2598 c-49 -5 -94 -13 -99 -19 -6 -5 -20 -9 -32 -9 -25 0 -147
-50 -152 -62 -2 -4 -11 -8 -19 -8 -9 0 -31 -11 -49 -25 -18 -14 -35 -25 -38
-25 -22 0 -162 -138 -224 -219 -31 -42 -59 -78 -62 -81 -22 -22 -97 -176 -114
-235 -10 -33 -22 -70 -28 -81 -20 -43 21 -467 51 -522 6 -11 11 -30 11 -41 0
-12 3 -21 8 -21 4 0 14 -15 22 -33 19 -40 19 -357 0 -439 -33 -151 -44 -186
-66 -225 -13 -23 -24 -44 -24 -47 0 -10 39 -6 45 4 3 5 23 10 43 10 20 0 71 7
112 16 41 8 100 20 130 25 30 6 69 14 86 20 17 5 44 9 60 9 16 0 45 5 64 10
19 6 62 15 95 20 33 5 83 14 110 20 28 6 73 15 102 19 28 5 64 12 80 15 27 6
68 -21 201 -135 12 -10 25 -19 28 -19 2 0 15 -10 28 -23 13 -12 36 -31 52 -42
15 -11 42 -32 60 -47 17 -16 37 -28 43 -28 6 0 11 -4 11 -8 0 -5 16 -17 35
-28 19 -10 35 -22 35 -26 0 -5 7 -8 15 -8 8 0 15 -4 15 -9 0 -5 8 -12 18 -15
10 -4 27 -14 38 -24 25 -21 53 -39 80 -51 11 -5 27 -15 35 -23 32 -29 352
-188 379 -188 12 0 13 33 1 46 -8 8 -21 57 -37 134 -3 14 -9 34 -14 45 -5 11
-11 36 -13 55 -9 71 -29 186 -38 216 -5 17 -9 50 -9 75 0 24 -5 60 -10 79 -6
21 -11 167 -11 360 l0 326 -124 18 c-135 19 -163 26 -244 65 -58 28 -151 112
-151 137 0 25 64 80 130 110 19 9 43 20 52 25 22 11 203 12 226 1 9 -5 33 -17
52 -27 19 -10 45 -23 57 -29 15 -7 28 -29 39 -66 8 -30 20 -63 25 -72 5 -10 9
-28 9 -39 0 -12 7 -47 16 -78 9 -31 20 -74 26 -96 5 -22 14 -48 19 -57 5 -10
9 -26 9 -35 0 -33 37 -135 51 -144 8 -5 28 -9 45 -9 17 0 67 -9 110 -21 44
-11 89 -23 102 -26 12 -3 25 -9 28 -14 3 -5 14 -9 25 -9 10 0 19 -4 19 -9 0
-9 41 -23 48 -16 5 5 -24 51 -50 79 -10 11 -20 28 -24 38 -3 10 -10 18 -15 18
-5 0 -9 7 -9 15 0 8 -4 15 -8 15 -4 0 -21 25 -37 55 -15 30 -32 55 -37 55 -4
0 -8 5 -8 12 0 6 -22 57 -49 112 -75 154 -137 309 -165 413 -7 23 -15 45 -19
49 -4 4 -7 18 -7 31 0 13 -4 31 -9 41 -6 9 -17 43 -27 75 -9 31 -21 57 -25 57
-5 0 -9 8 -9 17 0 19 -91 162 -121 189 -10 9 -19 23 -19 31 0 7 -7 13 -15 13
-8 0 -15 4 -15 8 0 19 -157 162 -177 162 -7 0 -13 4 -13 9 0 12 -168 93 -235
114 -175 55 -318 67 -530 45z"/>
<path d="M1073 2455 c-7 -8 -13 -22 -13 -32 0 -10 -7 -27 -15 -37 -28 -37 -19
-53 35 -65 28 -6 59 -11 70 -11 10 0 22 -4 25 -10 3 -5 19 -10 36 -10 16 0 37
-4 47 -9 9 -5 50 -16 91 -25 69 -15 74 -15 87 1 17 22 14 53 -6 64 -8 4 -42
20 -75 34 -33 15 -82 38 -108 51 -27 13 -55 24 -63 24 -8 0 -14 5 -14 10 0 6
-9 10 -20 10 -11 0 -20 5 -20 10 0 15 -43 11 -57 -5z"/>
<path d="M1004 2212 c-21 -14 -44 -224 -44 -406 0 -101 4 -176 9 -176 5 0 11
33 14 73 7 127 34 194 104 261 36 36 52 46 68 46 8 0 15 4 15 8 0 10 87 42
115 42 26 1 55 23 55 43 0 9 5 19 10 22 28 17 -19 45 -75 45 -19 0 -37 5 -40
10 -3 6 -26 10 -51 10 -25 0 -53 4 -62 9 -25 13 -105 22 -118 13z"/>
</g>
</svg>
